# xmcd
#
# Track frame offsets: 
#        150
#        17983
#        32930
#        46038
#        65947
#        82699
#        100333
#        122138
#        137314
#        154958
#        174205
#        185204
#        227190
#
# Disc length: 4144 seconds
#
# Revision: 2
# Processed by: cddbd v1.5.2PL0 Copyright (c) Steve Scherf et al.
# Submitted via: ExactAudioCopy v0.99pb5
#
DISCID=ab102e0d
DTITLE=Sa:ke - World Of Blue
DYEAR=2002
DGENRE=Blues
TTITLE0=Go To New Orleans
TTITLE1=My Girl Is A Blast
TTITLE2=Some Dark Clouds
TTITLE3=I Ain´t That Bad
TTITLE4=I´m Your Partner
TTITLE5=Feel It Groovin´ Now
TTITLE6=Don´t Look Like That
TTITLE7=Calledonia
TTITLE8=No Time
TTITLE9=World Of Blue
TTITLE10=Me And Your Pyjamas
TTITLE11=The One For My Mother
TTITLE12=Daten-CD
EXTD=
EXTT0=
EXTT1=
EXTT2=
EXTT3=
EXTT4=
EXTT5=
EXTT6=
EXTT7=
EXTT8=
EXTT9=
EXTT10=
EXTT11=
EXTT12=
PLAYORDER=
